<?xml version="1.0" standalone="no"?>
<!DOCTYPE svg PUBLIC "-//W3C//DTD SVG 20010904//EN"
 "http://www.w3.org/TR/2001/REC-SVG-20010904/DTD/svg10.dtd">
<svg version="1.0" xmlns="http://www.w3.org/2000/svg"
 width="500.000000pt" height="500.000000pt" viewBox="0 0 500.000000 500.000000"
 preserveAspectRatio="xMidYMid meet">

<g transform="translate(0.000000,500.000000) scale(0.100000,-0.100000)"
fill="#000000" stroke="none">
<path d="M1535 3691 c-48 -22 -82 -58 -121 -126 -15 -27 -56 -84 -90 -125 -33
-41 -78 -100 -98 -130 l-37 -55 8 80 c10 101 10 229 0 278 -12 56 -33 47 -70
-30 -29 -62 -32 -76 -32 -168 0 -91 3 -105 29 -157 l29 -58 -50 -107 c-28 -60
-59 -133 -69 -163 l-19 -55 -6 60 c-4 33 -7 83 -8 110 -1 56 -23 97 -47 88 -8
-3 -24 -23 -34 -44 -38 -74 -20 -212 36 -286 l28 -37 1 -175 c1 -97 5 -194 9
-216 l8 -40 -18 25 c-81 116 -124 156 -183 175 -23 7 -24 6 -18 -29 15 -92
110 -206 201 -241 42 -16 45 -20 75 -99 17 -46 51 -122 76 -169 24 -48 41 -87
38 -87 -3 0 -17 8 -31 19 -51 35 -132 71 -162 71 -25 0 -30 -4 -30 -23 0 -24
41 -88 76 -119 41 -36 115 -60 168 -56 l51 4 50 -69 c28 -39 83 -105 124 -149
72 -77 79 -88 41 -68 -34 18 -175 32 -205 20 -26 -10 -27 -12 -11 -29 26 -29
108 -70 166 -82 39 -8 67 -8 111 0 57 12 60 11 101 -17 72 -49 166 -92 246
-113 41 -10 78 -17 80 -14 8 7 5 8 -75 33 -80 25 -103 42 -103 76 0 54 -115
226 -151 226 -20 0 -2 -80 35 -152 l34 -67 -27 17 c-42 26 -104 74 -152 117
-44 39 -46 43 -57 121 -18 129 -69 244 -109 244 -14 0 -15 -10 -10 -69 3 -37
13 -85 21 -106 9 -21 15 -39 13 -41 -6 -6 -129 176 -176 261 l-50 90 24 50
c32 64 41 157 26 255 -14 86 -24 103 -46 74 -29 -39 -48 -118 -48 -199 l1 -80
-19 48 c-27 68 -59 192 -66 258 l-6 56 47 43 c30 28 59 69 80 114 39 82 59
163 43 173 -16 10 -98 -85 -140 -163 l-38 -69 6 65 c8 82 37 208 65 283 17 46
27 58 48 63 57 12 115 37 155 68 55 42 131 136 119 148 -13 13 -99 -22 -178
-71 -35 -22 -64 -38 -64 -34 0 15 106 177 165 250 54 70 76 88 133 117 38 19
82 46 99 60 28 24 93 131 93 155 0 17 -61 13 -105 -8z"/>
<path d="M3360 3706 c0 -4 13 -33 29 -64 38 -75 80 -115 166 -158 56 -28 81
-49 123 -101 59 -73 113 -152 157 -227 l28 -50 -34 23 c-41 27 -193 101 -208
101 -19 0 -12 -20 21 -67 42 -57 137 -129 191 -144 82 -22 83 -23 111 -106 30
-89 56 -218 56 -271 l0 -37 -34 62 c-39 73 -112 163 -132 163 -18 0 -18 -24 2
-91 25 -85 62 -148 115 -199 l50 -48 -11 -65 c-11 -74 -54 -227 -73 -263 -11
-21 -12 -15 -9 45 5 76 -15 160 -47 200 l-19 24 -13 -24 c-10 -17 -14 -62 -14
-150 0 -111 3 -131 24 -176 l24 -51 -38 -69 c-40 -74 -129 -210 -169 -258
l-24 -30 18 55 c10 30 21 81 25 113 5 47 4 57 -8 57 -44 0 -105 -131 -114
-245 -4 -52 -11 -76 -27 -93 -27 -31 -130 -112 -179 -141 l-37 -23 31 51 c36
58 63 157 46 168 -27 17 -157 -175 -157 -233 0 -26 -24 -41 -110 -69 -52 -16
-86 -35 -65 -35 66 1 245 71 329 129 43 30 47 31 96 20 84 -18 172 2 253 58
58 40 50 53 -36 53 -41 0 -96 -7 -123 -15 -27 -8 -51 -15 -53 -15 -2 0 25 30
60 67 34 37 88 103 120 146 l58 79 69 1 c57 2 77 7 118 32 51 32 117 117 112
144 -3 12 -15 16 -46 15 -39 -1 -65 -13 -165 -78 -26 -18 -25 -14 21 75 27 52
62 131 78 176 27 77 31 82 66 92 80 24 178 129 208 223 15 49 8 60 -32 46 -39
-14 -110 -84 -157 -153 -22 -33 -31 -42 -27 -25 20 78 29 232 19 319 l-10 92
28 30 c50 53 80 182 60 256 -7 24 -23 55 -36 70 -24 27 -26 27 -39 10 -8 -11
-17 -55 -21 -105 -11 -156 -13 -158 -50 -57 -17 50 -48 122 -68 162 l-37 72
25 48 c55 106 54 231 -2 343 -30 59 -53 70 -64 30 -10 -37 -10 -216 1 -290 5
-35 8 -66 6 -67 -1 -2 -25 30 -53 70 -28 39 -73 97 -99 129 -27 31 -65 84 -84
118 -43 77 -102 121 -172 128 -26 2 -48 2 -48 -2z"/>
<path d="M1365 2970 c-8 -13 26 -60 67 -95 25 -21 32 -34 30 -55 -2 -16 4 -42
12 -59 16 -30 16 -31 -11 -45 -87 -45 -131 -174 -88 -257 47 -90 214 -93 294
-6 l24 26 19 -24 c11 -14 29 -25 41 -25 29 0 83 34 97 61 12 21 12 21 27 -9
30 -61 116 -67 184 -13 l37 31 10 -30 c14 -38 55 -50 94 -27 31 18 32 18 19
-17 -8 -19 -21 -27 -65 -36 -80 -16 -120 -47 -124 -92 -2 -27 3 -43 17 -57 45
-45 115 -12 160 76 25 49 38 62 85 87 31 16 70 44 86 63 19 21 30 28 30 18 0
-21 36 -55 59 -55 10 0 35 11 55 25 43 29 46 30 46 10 0 -24 45 -40 74 -27 17
7 27 7 35 -1 12 -12 15 -5 71 141 41 108 85 166 128 170 47 5 49 -25 13 -140
-36 -110 -38 -139 -13 -161 29 -27 61 -20 98 18 36 38 44 42 44 21 0 -8 12
-24 26 -35 46 -36 114 -24 169 29 l30 29 13 -28 c25 -56 109 -66 173 -20 53
37 113 149 80 149 -5 0 -23 -25 -40 -55 -48 -84 -116 -116 -169 -79 -17 12
-22 25 -22 58 l0 43 60 22 c107 39 159 105 125 157 -11 17 -25 24 -49 24 -58
0 -113 -60 -157 -173 -27 -69 -64 -116 -105 -133 -46 -19 -70 -18 -95 7 -18
18 -21 29 -16 69 11 94 89 205 138 198 22 -3 24 -8 22 -50 -1 -50 9 -61 27
-29 40 76 -30 141 -102 93 -40 -26 -61 -57 -117 -174 -49 -104 -77 -136 -107
-124 -21 8 -17 38 16 143 34 107 36 120 14 151 -18 26 -69 30 -102 6 -20 -14
-22 -14 -22 1 0 40 -25 2 -60 -91 -48 -127 -74 -179 -102 -198 -65 -46 -68 -2
-13 160 35 101 44 139 36 147 -9 9 -13 6 -17 -11 -7 -26 -17 -28 -34 -7 -7 8
-28 15 -48 15 -51 0 -98 -54 -145 -168 -25 -59 -52 -105 -77 -131 -38 -39
-100 -79 -100 -64 0 5 23 71 51 148 69 191 73 204 65 212 -4 5 -14 -1 -22 -11
-13 -18 -15 -18 -32 -3 -26 24 -72 21 -105 -6 -15 -12 -53 -73 -85 -137 -60
-121 -97 -160 -151 -160 -47 0 -71 26 -71 74 l0 43 60 22 c107 39 159 105 125
157 -11 18 -25 24 -50 24 -54 0 -93 -43 -159 -174 -44 -90 -64 -120 -88 -132
-75 -39 -75 2 2 225 33 96 60 184 60 195 0 45 -29 -12 -80 -159 -74 -214 -101
-260 -170 -295 -43 -22 -119 -26 -153 -9 -64 33 -78 123 -30 196 34 53 94 89
123 73 12 -6 35 -10 53 -8 27 2 32 7 32 28 0 23 -3 25 -54 26 -46 1 -56 4 -67
25 -7 13 -13 33 -14 45 0 19 4 20 55 16 94 -8 175 36 175 95 0 49 -87 69 -156
37 -19 -9 -47 -32 -63 -51 l-29 -35 -35 32 c-20 17 -39 40 -42 51 -7 21 -20
25 -30 9z m323 -48 c3 -18 -5 -26 -40 -42 -47 -21 -123 -27 -133 -9 -18 28 70
80 130 77 33 -3 41 -7 43 -26z m378 -187 c10 -26 -26 -66 -82 -92 -31 -14 -58
-23 -61 -20 -8 8 47 96 70 112 28 19 66 19 73 0z m234 0 c18 -22 7 -72 -35
-157 -51 -103 -95 -139 -126 -102 -10 13 -10 27 0 77 29 139 115 237 161 182z
m312 -10 c9 -21 7 -36 -16 -93 -49 -126 -106 -191 -141 -162 -29 24 -10 131
40 216 40 68 95 87 117 39z m834 10 c10 -26 -26 -66 -82 -92 -31 -14 -58 -23
-61 -20 -8 8 47 96 70 112 28 19 66 19 73 0z m-1268 -417 c-40 -73 -107 -90
-116 -29 -6 40 39 68 111 70 l28 1 -23 -42z"/>
<path d="M2083 2895 c-57 -38 -68 -51 -54 -60 14 -8 121 64 121 81 0 21 -10
17 -67 -21z"/>
</g>
</svg>
